# xmcd
#
# Track frame offsets:
#  150
#  15602
#  33877
#  49810
#  64880
#  83807
#  104375
#  120600
#  146940
#  164967
#  183645
#  203497
#  225237
#  245004
#  267162
#  282925
#
# Disc length: 4021 seconds
#
# Revision: 0
# Processed by: cddbd v1.4PL0 Copyright (c) Steve Scherf et al.
# Submitted via: AltoMP3_Maker 3.0
#
DISCID=e60fb310
DTITLE=Barry White - The Ultimate Collection
DYEAR=1900
DGENRE=
TTITLE0=You're the first, the last, my everything
TTITLE1=Can't get enough of your love babe 
TTITLE2=Let the music play
TTITLE3=Don't make me wait too long
TTITLE4=I'll do for you anything you want me to
TTITLE5=Sho' you right
TTITLE6=What am i gonna do with you
TTITLE7=Come on
TTITLE8=I'm gonna love you just a little more babe
TTITLE9=Never, never gonna give you up
TTITLE10=Baby we better try and get it together
TTITLE11=Just the way you are
TTITLE12=I'm qualified to satisfy you
TTITLE13=Dark and lovely (you over there) "radio edit"
TTITLE14=You see the trouble with me
TTITLE15=It's ecstasy when you lay down next to me
EXTD=
EXTT0=
EXTT1=
EXTT2=
EXTT3=
EXTT4=
EXTT5=
EXTT6=
EXTT7=
EXTT8=
EXTT9=
EXTT10=
EXTT11=
EXTT12=
EXTT13=
EXTT14=
EXTT15=
PLAYORDER=
